<svg width="24px" height="24px" viewBox="0 0 24 24" version="1.1" xmlns="http://www.w3.org/2000/svg" xmlns:xlink="http://www.w3.org/1999/xlink">
  <g id="App" stroke="none" stroke-width="1" fill="none" fill-rule="evenodd">
    <g id="Artboard" transform="translate(-77.000000, -84.000000)" fill="#F7A214">
      <path d="M86.45,84 C91.6690909,84 95.9,88.2309091 95.9,93.45 C95.9,98.6690909 91.6690909,102.9 86.45,102.9 C81.2309091,102.9 77,98.6690909 77,93.45 C77,88.2309091 81.2309091,84 86.45,84 Z M86.5,96.1 C86.0029437,96.1 85.6,96.5029437 85.6,97 L85.6,97 L85.6,97.5 L85.6070123,97.6128941 C85.6625482,98.0566633 86.0411788,98.4 86.5,98.4 C86.9970563,98.4 87.4,97.9970563 87.4,97.5 L87.4,97.5 L87.4,97 L87.3929877,96.8871059 C87.3374518,96.4433367 86.9588212,96.1 86.5,96.1 Z M86.5,87.1 C86.0029437,87.1 85.6,87.5029437 85.6,88 L85.6,88 L85.6,93.9101668 L85.6070123,94.0230609 C85.6625482,94.4668301 86.0411788,94.8101668 86.5,94.8101668 C86.9970563,94.8101668 87.4,94.4072231 87.4,93.9101668 L87.4,93.9101668 L87.4,88 L87.3929877,87.8871059 C87.3374518,87.4433367 86.9588212,87.1 86.5,87.1 Z" id="ico-warning"></path>
    </g>
  </g>
</svg>
