<svg width="24px" height="24px" viewBox="0 0 24 24" version="1.1" xmlns="http://www.w3.org/2000/svg" xmlns:xlink="http://www.w3.org/1999/xlink">
  <g id="App" stroke="none" stroke-width="1" fill="none" fill-rule="evenodd">
    <g id="Artboard" transform="translate(-77.000000, -114.000000)" fill="#2BBE6F">
      <path d="M86.45,114 C91.6690909,114 95.9,118.230909 95.9,123.45 C95.9,128.669091 91.6690909,132.9 86.45,132.9 C81.2309091,132.9 77,128.669091 77,123.45 C77,118.230909 81.2309091,114 86.45,114 Z M90,123.85 C89.6410149,123.85 89.35,124.141015 89.35,124.5 L89.35,124.5 L89.35,125.287445 L89.3382107,125.467405 C89.2525114,126.452402 88.8432115,126.85 87.9870216,126.85 L87.9870216,126.85 L83.5349993,126.849983 L84.4507814,125.968278 L84.5208414,125.889031 C84.7084142,125.638553 84.6923609,125.281975 84.4682994,125.049207 C84.2193422,124.790574 83.8078597,124.782731 83.5492275,125.031689 L83.5492275,125.031689 L81.5492275,126.956872 L81.4758143,127.040675 C81.3022264,127.276885 81.3065341,127.607014 81.4995026,127.839894 L81.4995026,127.839894 L83.2187384,129.91471 L83.2925599,129.990466 C83.5284043,130.196135 83.885189,130.206628 84.1339666,130.000485 L84.1339666,130.000485 L84.2097225,129.926664 C84.4153922,129.690819 84.4258845,129.334035 84.2197422,129.085257 L84.2197422,129.085257 L83.4439993,128.149983 L87.9870216,128.15 L88.1736483,128.145447 C89.7025368,128.069678 90.5713317,127.051326 90.6493437,125.316648 L90.6493437,125.316648 L90.65,124.5 L90.6429523,124.403948 C90.5965265,124.090508 90.3263501,123.85 90,123.85 Z M89.7074446,117.009518 C89.4716002,116.803848 89.1148155,116.793356 88.8660379,116.999498 L88.8660379,116.999498 L88.790282,117.07332 C88.5846123,117.309164 88.57412,117.665949 88.7802623,117.914726 L88.7802623,117.914726 L89.5549993,118.849983 L85.0129784,118.85 L84.8263517,118.854553 C83.2974632,118.930322 82.4286683,119.948674 82.3506563,121.683352 L82.3506563,121.683352 L82.35,122.5 L82.3570477,122.596052 C82.4034735,122.909492 82.6736499,123.15 83,123.15 C83.3589851,123.15 83.65,122.858985 83.65,122.5 L83.65,122.5 L83.65,121.712555 L83.6617893,121.532595 C83.7474886,120.547598 84.1567885,120.15 85.0129784,120.15 L85.0129784,120.15 L89.4649993,120.149983 L88.5492231,121.031705 L88.4791631,121.110953 C88.2915903,121.36143 88.3076436,121.718008 88.5317051,121.950777 C88.7806623,122.209409 89.1921448,122.217252 89.4507769,121.968295 L89.4507769,121.968295 L91.4507769,120.043111 L91.5241902,119.959308 C91.6977781,119.723099 91.6934704,119.392969 91.5005019,119.16009 L91.5005019,119.16009 L89.7812661,117.085274 Z" id="ico-resent"></path>
    </g>
  </g>
</svg>
