<svg width="24px" height="24px" viewBox="0 0 24 24" version="1.1" xmlns="http://www.w3.org/2000/svg" xmlns:xlink="http://www.w3.org/1999/xlink">
  <g id="App" stroke="none" stroke-width="1" fill="none" fill-rule="evenodd">
    <g id="Artboard" transform="translate(-77.000000, -37.000000)" fill="#2BBE6F">
      <path d="M86.45,37 C91.6690909,37 95.9,41.2309091 95.9,46.45 C95.9,51.6690909 91.6690909,55.9 86.45,55.9 C81.2309091,55.9 77,51.6690909 77,46.45 C77,41.2309091 81.2309091,37 86.45,37 Z M91.5895248,42.6313156 C91.2202206,42.2986305 90.6511459,42.3283162 90.3184608,42.6976204 L90.3184608,42.6976204 L85.598,47.937 L83.0041938,45.5875619 L82.9081641,45.5116657 C82.5425711,45.2609277 82.0388342,45.3127145 81.7329544,45.6504136 C81.3992674,46.0188127 81.4274071,46.587966 81.7958062,46.921653 L81.7958062,46.921653 L85.0588198,49.8772124 L85.1550374,49.9532384 C85.5213546,50.2043422 86.0261508,50.1517257 86.3316981,49.8125464 L86.3316981,49.8125464 L91.6558297,43.9023796 L91.7314647,43.8061441 C91.9812086,43.4398712 91.9280537,42.9362769 91.5895248,42.6313156 Z" id="ico-check"></path>
    </g>
  </g>
</svg>
