<svg version="1.1" xmlns="http://www.w3.org/2000/svg" width="600.000000pt" height="420.000000pt" viewBox="0 0 600.000000 420.000000" preserveAspectRatio="xMidYMid meet">
    <g transform="translate(0.000000,420.000000) scale(0.100000,-0.100000)" fill="#000000" stroke="none">
    <path d="M2235 3360 c-72 -29 -158 -100 -184 -152 -29 -61 -28 -138 4 -205 28 -62 54 -69 88 -26 12 16 61 66 108 113 66 66 106 96 178 133 83 44 92 51 89 75 -2 20 -15 32 -52 51 -67 34 -161 39 -231 11z"/>
    <path d="M3568 3365 c-58 -22 -88 -45 -88 -70 0 -20 16 -32 92 -72 70 -37 112 -68 178 -133 47 -47 96 -97 108 -112 34 -44 59 -37 87 25 52 110 25 215 -74 293 -98 77 -211 103 -303 69z"/>
    <path d="M2523 2986 c-132 -43 -208 -135 -233 -279 -19 -107 7 -196 75 -255 42 -37 71 -46 130 -40 169 20 355 252 330 414 -18 121 -171 203 -302 160z"/>
    <path d="M3317 2986 c-120 -45 -167 -139 -131 -265 41 -147 176 -282 307 -306 145 -27 253 124 217 301 -26 126 -90 213 -188 256 -58 26 -155 33 -205 14z"/>
    <path d="M3801 2539 c-99 -115 -195 -201 -304 -273 -161 -106 -207 -161 -207 -246 0 -74 33 -125 105 -163 32 -16 59 -21 131 -21 85 -1 95 1 166 37 136 67 188 148 218 337 24 157 -2 363 -49 378 -7 2 -34 -20 -60 -49z"/>
    <path d="M2110 2555 c-42 -112 -38 -315 10 -477 26 -88 97 -164 197 -211 62 -29 76 -32 158 -31 97 1 148 18 192 66 41 43 55 124 33 182 -17 45 -83 107 -180 171 -130 84 -208 151 -286 245 -73 88 -106 103 -124 55z"/>
    <path d="M2893 2385 c-49 -35 -19 -132 56 -182 47 -32 72 -29 120 15 43 38 72 100 63 134 -11 45 -81 60 -114 24 -11 -12 -15 -12 -29 0 -25 23 -71 27 -96 9z"/>
    <path d="M3142 1839 c-114 -58 -129 -183 -36 -309 60 -81 94 -91 201 -55 98 33 220 105 290 171 48 45 54 54 44 72 -12 23 -36 32 -163 61 -48 11 -115 32 -148 46 -88 37 -136 41 -188 14z"/>
    <path d="M2664 1820 c-40 -16 -119 -39 -175 -51 -119 -25 -139 -33 -139 -56 0 -49 205 -191 341 -237 69 -23 80 -24 120 -13 54 16 112 86 135 165 17 58 13 99 -18 149 -47 79 -140 94 -264 43z"/>
    <path d="M1493 1110 c-43 -18 -58 -84 -25 -114 11 -9 48 -26 83 -38 35 -11 70 -25 77 -31 22 -17 10 -60 -21 -75 -39 -19 -95 2 -122 46 -22 34 -50 44 -42 15 3 -10 8 -35 12 -55 6 -37 19 -50 27 -26 4 10 10 10 32 0 75 -34 166 6 166 73 0 41 -31 69 -101 89 -71 22 -89 34 -89 62 0 17 8 27 27 35 39 14 72 3 110 -38 19 -19 36 -33 39 -30 7 7 -5 70 -18 88 -7 10 -11 11 -14 2 -4 -9 -13 -9 -30 -2 -31 11 -81 11 -111 -1z"/>
    <path d="M1720 1112 c0 -5 9 -12 20 -15 19 -5 20 -14 20 -127 0 -113 -1 -122 -20 -127 -37 -10 -20 -23 29 -23 51 0 76 14 41 23 -18 5 -20 14 -20 106 0 56 2 101 3 101 2 0 23 -52 47 -115 24 -67 47 -114 54 -112 6 2 30 55 53 118 23 63 44 119 47 124 2 6 5 -41 5 -103 1 -106 0 -114 -19 -119 -39 -10 -19 -23 35 -23 53 0 72 11 40 24 -22 8 -22 244 0 252 29 12 15 24 -27 24 l-43 0 -40 -110 c-22 -60 -42 -110 -45 -110 -3 0 -23 49 -45 108 l-40 107 -47 3 c-27 2 -48 -1 -48 -6z"/>
    <path d="M2222 1103 c-5 -10 -29 -70 -52 -133 -24 -63 -49 -119 -57 -123 -7 -4 -13 -12 -13 -17 0 -13 77 -13 85 0 3 6 -1 10 -9 10 -19 0 -20 15 -5 59 10 29 13 31 64 31 51 0 54 -2 64 -31 15 -44 14 -59 -5 -59 -8 0 -12 -4 -9 -10 7 -11 105 -14 105 -4 0 4 -7 12 -15 18 -9 6 -37 70 -64 141 -49 129 -69 157 -89 118z"/>
    <path d="M2410 1110 c0 -5 6 -10 14 -10 21 0 26 -23 26 -130 0 -107 -5 -130 -26 -130 -8 0 -14 -5 -14 -10 0 -7 38 -10 107 -8 l106 3 15 43 c8 24 12 45 9 48 -2 3 -20 -11 -40 -31 -29 -29 -42 -35 -76 -35 l-41 0 0 120 c0 98 3 122 15 126 32 13 13 24 -40 24 -30 0 -55 -4 -55 -10z"/>
    <path d="M2670 1110 c0 -5 7 -10 15 -10 13 0 15 -21 15 -125 0 -102 -3 -127 -15 -131 -39 -15 -6 -24 89 -24 l103 0 18 46 c9 25 15 48 12 51 -4 3 -21 -11 -40 -31 -29 -30 -41 -36 -76 -36 l-41 0 0 125 c0 104 2 125 15 125 8 0 15 5 15 10 0 6 -25 10 -55 10 -30 0 -55 -4 -55 -10z"/>
    <path d="M3066 1112 c-3 -5 3 -12 14 -15 19 -5 20 -14 20 -127 0 -113 -1 -122 -20 -127 -35 -9 -11 -23 40 -23 51 0 75 14 40 23 -17 4 -20 14 -20 56 l0 51 60 0 c51 0 65 4 85 25 32 31 32 75 1 111 -22 26 -30 28 -118 32 -58 3 -98 0 -102 -6z"/>
    <path d="M3435 1108 c-48 -136 -98 -255 -110 -264 -25 -18 -17 -24 30 -24 47 0 55 6 30 24 -12 9 -13 17 -3 49 l12 38 54 -3 c54 -3 55 -4 68 -41 11 -32 11 -39 -1 -44 -31 -11 -13 -23 35 -23 49 0 64 11 36 27 -7 4 -35 68 -62 141 -38 103 -52 132 -66 132 -10 0 -21 -6 -23 -12z"/>
    <path d="M3626 1112 c-3 -5 3 -12 14 -15 19 -5 20 -14 20 -127 0 -113 -1 -122 -20 -127 -33 -9 -11 -23 36 -23 43 0 59 12 29 24 -12 4 -15 27 -15 118 l1 113 32 -53 c77 -128 127 -202 137 -202 6 0 10 45 10 124 0 133 4 156 27 156 8 0 11 5 8 10 -7 11 -95 14 -95 4 0 -4 7 -12 15 -18 13 -9 15 -29 13 -95 l-3 -85 -60 100 c-59 98 -60 99 -102 102 -22 2 -44 -1 -47 -6z"/>
    <path d="M3940 1111 c0 -5 9 -11 20 -14 19 -5 20 -14 20 -127 0 -113 -1 -122 -20 -127 -11 -3 -20 -10 -20 -15 0 -18 214 -4 244 15 100 66 68 240 -50 268 -50 11 -194 12 -194 0z m208 -37 c64 -44 69 -149 11 -203 -18 -16 -36 -21 -81 -21 l-58 0 0 120 0 120 53 0 c31 0 61 -6 75 -16z"/>
    <path d="M4395 1111 c-3 -6 -26 -63 -50 -127 -25 -64 -51 -124 -60 -134 -8 -9 -15 -20 -15 -23 0 -11 78 -8 85 3 3 6 -1 10 -9 10 -19 0 -20 15 -5 59 10 30 13 31 64 31 53 0 54 -1 66 -37 10 -31 9 -38 -5 -48 -23 -17 -9 -25 46 -25 50 0 58 5 33 24 -9 6 -37 70 -64 141 -46 122 -68 154 -86 126z"/>
    </g>
</svg>
